<?xml version="1.0" standalone="no"?>
<!DOCTYPE svg PUBLIC "-//W3C//DTD SVG 1.1//EN" "http://www.w3.org/Graphics/SVG/1.1/DTD/svg11.dtd" >
<svg xmlns="http://www.w3.org/2000/svg" xmlns:xlink="http://www.w3.org/1999/xlink" version="1.1">
<metadata></metadata>
<defs>
<font id="accuratistregular" horiz-adv-x="1044" >
<font-face units-per-em="2048" ascent="1638" descent="-410" />
<missing-glyph horiz-adv-x="327" />
<glyph horiz-adv-x="0" />
<glyph horiz-adv-x="0" />
<glyph unicode="&#xd;" horiz-adv-x="0" />
<glyph unicode=" "  horiz-adv-x="327" />
<glyph unicode="&#x09;" horiz-adv-x="327" />
<glyph unicode="&#xa0;" horiz-adv-x="327" />
<glyph unicode="!" horiz-adv-x="471" d="M123 92q0 47 32.5 80t80.5 33q47 0 79.5 -33t32.5 -80t-32.5 -79.5t-79.5 -32.5t-80 32.5t-33 79.5zM143 389v1045h185v-1045h-185z" />
<glyph unicode="&#x22;" horiz-adv-x="686" d="M102 1004v430h174v-430h-174zM410 1004v430h174v-430h-174z" />
<glyph unicode="#" horiz-adv-x="1167" d="M20 205v164h216l122 266h-174v164h246l92 205h185l-93 -205h205l92 205h185l-92 -205h143v-164h-215l-123 -266h174v-164h-246l-92 -205h-184l92 205h-205l-92 -205h-184l92 205h-144zM420 369h205l123 266h-205z" />
<glyph unicode="$" d="M82 1034q0 170 93 269.5t255 130.5v163h184v-163h267v-195h-400q-92 0 -148.5 -56.5t-56.5 -148.5q0 -70 51.5 -111.5t127 -72.5t165 -61.5t165 -75.5t127 -114t51.5 -179q0 -178 -97.5 -283.5t-251.5 -136.5v-164h-184v164h-328v195h441q100 0 162.5 62t62.5 163 q0 70 -51 111.5t-127 72.5t-165 61.5t-165 75.5t-127 113.5t-51 179.5z" />
<glyph unicode="%" horiz-adv-x="1392" d="M61 1085v93q0 123 78 199.5t209 76.5t209 -77t78 -199v-93q0 -123 -78 -199.5t-209 -76.5t-209 77t-78 199zM225 0l738 1434h204l-737 -1434h-205zM246 1085q0 -39 27.5 -65.5t74.5 -26.5t75 27t28 65v93q0 39 -28 65.5t-75 26.5t-74.5 -26.5t-27.5 -65.5v-93zM758 256 v92q0 123 77.5 200t208.5 77t209 -77t78 -200v-92q0 -123 -77.5 -199.5t-209.5 -76.5q-131 0 -208.5 76.5t-77.5 199.5zM942 256q0 -39 27.5 -65.5t74.5 -26.5t75 26.5t28 65.5v92q0 39 -27.5 65.5t-75.5 26.5q-47 0 -74.5 -26.5t-27.5 -65.5v-92z" />
<glyph unicode="&#x26;" horiz-adv-x="1228" d="M61 399q0 88 45.5 169t98.5 145q63 74 143 137q-41 39 -72 90q-29 41 -50 99.5t-21 127.5q0 53 21.5 105.5t60.5 92.5t91 64.5t114 24.5q61 0 113 -21.5t91 -60.5t60.5 -91t21.5 -114q0 -70 -28.5 -128t-63.5 -99q-41 -51 -92 -90l328 -389l153 153l133 -133l-164 -164 l164 -194l-143 -123l-154 184q-53 -57 -118 -102q-55 -39 -132 -70.5t-169 -31.5t-171 32.5t-136.5 89t-90.5 133t-33 164.5zM256 399q0 -47 18.5 -88t50 -71.5t75 -48t92.5 -17.5q70 0 124 23.5t93 52.5q45 35 79 78l-327 389q-57 -43 -103 -94q-39 -43 -70.5 -100.5 t-31.5 -123.5zM399 1167q0 -39 12.5 -72.5t28.5 -58.5q18 -29 41 -53q29 25 51 53q18 25 35 58.5t17 72.5t-27 66t-65 27q-39 0 -66 -27t-27 -66z" />
<glyph unicode="'" horiz-adv-x="378" d="M102 1004v430h174v-430h-174z" />
<glyph unicode="(" horiz-adv-x="655" d="M164 207v837q0 96 34.5 179.5t95 143.5t142.5 94t178 34v-184q-117 0 -191.5 -75t-74.5 -192v-839q0 -117 75 -191.5t191 -74.5v-185q-96 0 -178 35t-142.5 95.5t-95 143.5t-34.5 179z" />
<glyph unicode=")" horiz-adv-x="655" d="M41 -61q117 0 191.5 74.5t74.5 191.5v839q0 117 -74.5 192t-191.5 75v184q96 0 178 -34t142.5 -94t95.5 -143t35 -180v-837q0 -96 -35 -179t-95.5 -143.5t-142.5 -95.5t-178 -35v185z" />
<glyph unicode="*" horiz-adv-x="819" d="M82 1024l51 31l143 51l-143 51l-51 31l82 143l51 -31l133 -92l-20 144v82h164v-82l-21 -144l133 92l51 31l82 -143l-51 -31l-143 -51l143 -51l51 -31l-82 -143l-51 30l-133 93l21 -144v-82h-164v82l20 144l-133 -93l-51 -30z" />
<glyph unicode="+" horiz-adv-x="839" d="M82 532v185h246v266h184v-266h246v-185h-246v-266h-184v266h-246z" />
<glyph unicode="," horiz-adv-x="368" d="M-41 -184l164 368h184l-225 -368h-123z" />
<glyph unicode="-" horiz-adv-x="839" d="M82 532v185h676v-185h-676z" />
<glyph unicode="." horiz-adv-x="389" d="M82 92q0 47 32.5 80t80.5 33q47 0 79.5 -33t32.5 -80t-32.5 -79.5t-79.5 -32.5t-80 32.5t-33 79.5z" />
<glyph unicode="/" horiz-adv-x="901" d="M0 0l696 1434h205l-696 -1434h-205z" />
<glyph unicode="0" horiz-adv-x="1187" d="M143 430v574q0 96 35 178t95.5 142t142.5 95t178 35t178 -35t142.5 -95t95 -142t34.5 -178v-574q0 -96 -34.5 -178t-95 -142.5t-142.5 -95t-178 -34.5t-178 34.5t-142.5 95t-95.5 142.5t-35 178zM338 430q0 -53 19.5 -100t54 -82t82 -54.5t100.5 -19.5q39 0 68.5 9.5 t52.5 21.5q25 12 43 31l-420 757v-563zM430 1198l420 -758v564q0 53 -19.5 100t-54.5 82t-82 54.5t-100 19.5q-39 0 -68.5 -10.5t-52.5 -20.5q-25 -14 -43 -31z" />
<glyph unicode="1" horiz-adv-x="808" d="M61 0v195h256v1044h-256v195h451v-1239h256v-195h-707z" />
<glyph unicode="2" horiz-adv-x="1024" d="M82 0v573l430 185q109 47 162 105.5t53 150.5q0 45 -18.5 86t-49 71.5t-71.5 49t-86 18.5h-379v195h379q88 0 164.5 -33t133 -89.5t89.5 -133t33 -164.5q0 -162 -84 -261.5t-224 -158.5l-338 -143v-256h625v-195h-819z" />
<glyph unicode="3" horiz-adv-x="993" d="M41 0v195h430q45 0 86 17t71.5 48t49 72t18.5 88q0 45 -18.5 86t-49 71.5t-71.5 49t-86 18.5h-246v174l410 318v102h-574v195h768v-359l-337 -256q84 0 156.5 -30.5t126.5 -85t85 -127t31 -156.5q0 -88 -33 -165t-89 -133t-133 -89t-165 -33h-430z" />
<glyph unicode="4" horiz-adv-x="1105" d="M0 358l307 686h205l-215 -491h379v881h194v-881h174v-195h-174v-358h-194v358h-676z" />
<glyph unicode="5" horiz-adv-x="1075" d="M143 0v195h430q45 0 86 17t72 48t49.5 72t18.5 88q0 45 -18.5 86t-49.5 71.5t-72 49t-86 18.5h-409v789h706v-195h-512v-399h215q88 0 165 -33t133.5 -89t89 -133t32.5 -165t-32.5 -165t-89 -133t-133 -89t-165.5 -33h-430z" />
<glyph unicode="6" d="M82 430q0 49 12 97t29 85q18 43 41 84l368 738h216l-287 -564l20 4l22.5 4.5t28.5 2.5q92 0 174 -36t143.5 -97.5t97.5 -143.5t36 -174t-36 -174t-97.5 -143.5t-143 -97t-174.5 -35.5q-92 0 -174 35.5t-143 97t-97 143.5t-36 174zM276 430q0 -53 19.5 -100t54.5 -82 t82 -54.5t100 -19.5t100.5 19.5t82.5 54.5t54 82t19 100t-19 100.5t-54 82t-82.5 54t-100.5 19.5t-100 -19.5t-82 -54t-54.5 -82t-19.5 -100.5z" />
<glyph unicode="7" horiz-adv-x="931" d="M41 0l584 1239h-584v195h891l-676 -1434h-215z" />
<glyph unicode="8" horiz-adv-x="1064" d="M82 430q0 88 32.5 153.5t73.5 108.5q47 51 109 86q-43 25 -78 64q-29 35 -52.5 88t-23.5 135q0 80 31 151.5t83 124t123.5 83t151.5 30.5t152 -30.5t124 -83t83 -124t31 -151.5q0 -82 -25 -135t-53 -88q-35 -39 -76 -64q59 -35 106 -86q41 -43 75 -108.5t34 -153.5 q0 -92 -36 -174t-97.5 -143.5t-143 -97t-174.5 -35.5q-92 0 -174 35.5t-143 97t-97 143.5t-36 174zM276 430q0 -53 19.5 -100t54.5 -82t82 -54.5t100 -19.5t100.5 19.5t82.5 54.5t54 82t19 100t-19 100.5t-54 82t-82 54t-101 19.5q-53 0 -100 -19.5t-82 -54t-54.5 -82 t-19.5 -100.5zM338 1065q0 -86 54 -140.5t140 -54.5t140.5 54.5t54.5 140.5t-54.5 140.5t-140.5 54.5t-140 -54.5t-54 -140.5z" />
<glyph unicode="9" d="M61 1004q0 92 36 174t97.5 143t143.5 97t174 36t174 -36t143.5 -97t97.5 -143t36 -174q0 -51 -12.5 -98.5t-28.5 -84.5q-18 -43 -41 -84l-369 -737h-215l287 563q-10 -4 -21 -6q-10 -2 -22.5 -3t-28.5 -1q-92 0 -174 36t-143.5 97.5t-97.5 143t-36 174.5zM256 1004 q0 -53 19.5 -100.5t54.5 -82.5t82 -54t100 -19t100 19t82 54t54.5 82t19.5 101q0 53 -19.5 100t-54.5 82t-82 54.5t-100 19.5t-100 -19.5t-82 -54.5t-54.5 -82t-19.5 -100z" />
<glyph unicode=":" horiz-adv-x="389" d="M82 92q0 47 32.5 80t80.5 33q47 0 79.5 -33t32.5 -80t-32.5 -79.5t-79.5 -32.5t-80 32.5t-33 79.5zM82 911q0 47 32.5 80t80.5 33q47 0 79.5 -33t32.5 -80t-32.5 -79.5t-79.5 -32.5t-80 32.5t-33 79.5z" />
<glyph unicode=";" horiz-adv-x="389" d="M-41 -184l164 368h184l-225 -368h-123zM102 911q0 47 33 80t80 33t80 -33t33 -80t-33 -79.5t-80 -32.5t-80 32.5t-33 79.5z" />
<glyph unicode="&#x3c;" horiz-adv-x="819" d="M61 430v123l697 410v-195l-492 -276l492 -277v-195z" />
<glyph unicode="=" horiz-adv-x="839" d="M82 328v184h676v-184h-676zM82 737v185h676v-185h-676z" />
<glyph unicode="&#x3e;" horiz-adv-x="819" d="M61 20v195l492 277l-492 276v195l697 -410v-123z" />
<glyph unicode="?" horiz-adv-x="808" d="M82 1239v195h205q84 0 156.5 -31t127 -82t85 -120.5t30.5 -145.5q0 -74 -22.5 -129.5t-57.5 -98.5t-73.5 -78.5t-73.5 -70.5t-57.5 -75t-22.5 -91v-123h-184v123q0 76 21.5 133t55 101.5t71.5 79t72 69.5t55.5 73t21.5 87q0 78 -56.5 131t-148.5 53h-205zM174 92 q0 47 33 80t80 33t79.5 -33t32.5 -80t-32.5 -79.5t-79.5 -32.5t-80 32.5t-33 79.5z" />
<glyph unicode="@" horiz-adv-x="1576" d="M82 553q0 154 57.5 288t157.5 234.5t234 157.5t288 57q145 0 269 -51t214.5 -141t141.5 -214t51 -270q0 -92 -25.5 -164.5t-69.5 -121.5t-103.5 -76t-129.5 -27q-47 0 -81.5 12.5t-57.5 28.5q-27 18 -45 41q-27 -23 -57 -41q-29 -16 -65 -28.5t-83 -12.5q-66 0 -122 23.5 t-97 66.5t-64.5 103.5t-23.5 134.5t26.5 137.5t73.5 110.5t110.5 73.5t137.5 26.5h246v-450q6 -18 20 -31q10 -12 31 -21.5t51 -9.5q61 0 112.5 58.5t51.5 166.5q0 106 -40 200.5t-108.5 163.5t-162.5 108.5t-201 39.5q-115 0 -219 -46t-183 -124.5t-125 -183t-46 -219.5 t46 -219.5t125 -183t183.5 -124.5t218.5 -46q39 0 73 4t58 10q29 8 54 16l40 -153q-31 -12 -67 -21q-31 -8 -71 -14t-87 -6q-154 0 -288 57t-234 157.5t-157.5 234.5t-57.5 288zM635 553q0 -78 41 -121t102 -43q31 0 53.5 9.5t38.5 21.5q18 12 31 31v266h-82 q-39 0 -72.5 -14.5t-58 -37t-39 -52t-14.5 -60.5z" />
<glyph unicode="A" horiz-adv-x="1105" d="M0 0l451 1434h204l451 -1434h-205l-113 348h-471l-112 -348h-205zM369 532h368l-184 584z" />
<glyph unicode="B" horiz-adv-x="1187" d="M41 0v195h164v1044h-164v195h604q84 0 156.5 -31t127 -85t85 -127t30.5 -157q0 -74 -25.5 -125t-55.5 -86q-37 -39 -82 -65q57 -31 102 -80q39 -41 70.5 -105.5t31.5 -152.5t-32.5 -165t-89 -133t-133 -89t-164.5 -33h-363h-262zM399 195h267q100 0 162.5 62t62.5 163 q0 100 -62.5 162.5t-162.5 62.5h-267v-450zM399 829h246q92 0 148.5 56.5t56.5 148.5t-56.5 148.5t-148.5 56.5h-246v-410z" />
<glyph unicode="C" horiz-adv-x="1075" d="M143 451v532q0 100 36 186t99.5 149.5t149.5 99.5t186 36q117 0 196 -42t130 -91q57 -59 94 -133l-164 -103q-20 49 -55 86q-29 33 -79 61t-122 28q-57 0 -107 -21.5t-88 -59.5t-59.5 -88.5t-21.5 -107.5v-532q0 -57 21.5 -107.5t59.5 -88.5t88 -59.5t107 -21.5 q72 0 122 26.5t79 59.5q35 37 55 88l164 -102q-37 -76 -94 -133q-51 -51 -130 -92t-196 -41q-100 0 -186 35.5t-149.5 99t-99.5 149.5t-36 187z" />
<glyph unicode="D" horiz-adv-x="1177" d="M41 0v195h164v1044h-164v195h543q96 0 178 -35t142.5 -95.5t95 -142.5t34.5 -178v-532q0 -96 -34.5 -178.5t-95 -142.5t-142.5 -95t-178 -35h-543zM399 195h185q53 0 100 19t82 54t54.5 82t19.5 101v532q0 53 -19.5 100t-54.5 82t-82 54.5t-100 19.5h-185v-1044z" />
<glyph unicode="E" horiz-adv-x="1085" d="M184 0v1434h860v-195h-665v-420h481v-194h-481v-430h665v-195h-860z" />
<glyph unicode="F" d="M164 0v840h696v-195h-502v-645h-194zM164 1239v195h880v-195h-880z" />
<glyph unicode="G" horiz-adv-x="1249" d="M143 451v532q0 100 36 186t99.5 149.5t149.5 99.5t186 36q117 0 196 -42t130 -91q57 -59 94 -133l-164 -103q-20 49 -55 86q-29 33 -79 61t-122 28q-57 0 -107 -21.5t-88 -59.5t-59.5 -88.5t-21.5 -107.5v-532q0 -57 21.5 -107.5t59.5 -88.5t88 -59.5t107 -21.5 t107.5 21.5t88.5 59.5t59.5 88t21.5 108v81h-164v195h522v-195h-164v-81q0 -100 -35.5 -186.5t-99 -150t-149.5 -99t-187 -35.5q-100 0 -186 35.5t-149.5 99t-99.5 149.5t-36 187z" />
<glyph unicode="H" horiz-adv-x="1269" d="M20 1239v195h359v-615h512v615h194v-1434h-194v625h-512v-625h-195v1239h-164z" />
<glyph unicode="I" horiz-adv-x="747" d="M20 0v195h256v1044h-256v195h707v-195h-256v-1044h256v-195h-707z" />
<glyph unicode="J" horiz-adv-x="798" d="M0 0v195h92q53 0 100.5 19t82 54t54 82t19.5 101v788h-256v195h707v-195h-256v-788q0 -96 -35 -178.5t-95.5 -142.5t-142.5 -95t-178 -35h-92z" />
<glyph unicode="K" horiz-adv-x="1116" d="M20 1239v195h359v-615h194l308 615h215l-359 -717l359 -717h-215l-308 625h-194v-625h-195v1239h-164z" />
<glyph unicode="L" horiz-adv-x="1064" d="M184 0v1434h195v-1239h450v174h195v-369h-840z" />
<glyph unicode="M" horiz-adv-x="1474" d="M184 0v1434h236l317 -615l318 615h235v-1239h164v-195h-358v1116l-256 -502h-205l-256 502v-1116h-195z" />
<glyph unicode="N" horiz-adv-x="1269" d="M20 1239v195h359l512 -1004v1004h194v-1434h-194l-512 1004v-1004h-195v1239h-164z" />
<glyph unicode="O" horiz-adv-x="1228" d="M143 451v532q0 100 36 186t99.5 149.5t149.5 99.5t186 36t186.5 -36t150 -99.5t99 -149.5t35.5 -186v-532q0 -100 -35.5 -186.5t-99 -150t-149.5 -99t-187 -35.5q-100 0 -186 35.5t-149.5 99t-99.5 149.5t-36 187zM338 451q0 -57 21.5 -107.5t59.5 -88.5t88 -59.5 t107 -21.5t107.5 21.5t88.5 59.5t59.5 88t21.5 108v532q0 57 -21.5 107.5t-59.5 88.5t-88 59.5t-108 21.5q-57 0 -107 -21.5t-88 -59.5t-59.5 -88.5t-21.5 -107.5v-532z" />
<glyph unicode="P" horiz-adv-x="1146" d="M20 1239v195h635q84 0 159 -33t130 -88.5t88 -130t33 -158.5t-33 -158.5t-88 -130t-130 -88.5t-159 -33h-276v-614h-195v809h471q92 0 153.5 61.5t61.5 153.5t-61 153.5t-154 61.5h-635z" />
<glyph unicode="Q" horiz-adv-x="1228" d="M143 451v532q0 100 36 186t99.5 149.5t149.5 99.5t186 36t186.5 -36t150 -99.5t99 -149.5t35.5 -184v-534q0 -53 -6 -98.5t-14 -78.5q-8 -37 -21 -69l164 -266l-153 -103l-154 246q-31 -29 -74 -51q-37 -20 -90 -35.5t-123 -15.5q-100 0 -186 35.5t-149.5 99t-99.5 149.5 t-36 187zM338 451q0 -57 21.5 -107.5t59.5 -88.5t88 -59.5t107 -21.5q47 0 81 10.5t57 24.5q27 16 47 37l-461 737v-532zM430 1188l461 -737v534q0 57 -21.5 107.5t-59.5 87.5t-88 58.5t-108 21.5q-47 0 -81.5 -11.5t-57.5 -25.5q-27 -16 -45 -35z" />
<glyph unicode="R" horiz-adv-x="1198" d="M20 1239v195h656q84 0 158.5 -33t130 -88.5t88 -130t32.5 -158.5q0 -113 -45 -186.5t-98 -118.5q-63 -53 -143 -84l317 -635h-215l-297 614h-225v-614h-195v809h492q92 0 153.5 61.5t61.5 153.5t-61.5 153.5t-153.5 61.5h-656z" />
<glyph unicode="S" d="M82 1034q0 84 30.5 157t84 127t127 85t157.5 31h400v-195h-400q-92 0 -148.5 -56.5t-56.5 -148.5q0 -70 51.5 -111.5t127 -72.5t165 -61.5t165 -75.5t127 -114t51.5 -179q0 -88 -33 -165t-89.5 -133t-133 -89t-164.5 -33h-441v195h441q100 0 162.5 62t62.5 163 q0 70 -51 111.5t-127 72.5t-165 61.5t-165 75.5t-127 113.5t-51 179.5z" />
<glyph unicode="T" horiz-adv-x="1034" d="M61 645v195h912v-195h-359v-645h-194v645h-359zM61 1239v195h912v-195h-912z" />
<glyph unicode="U" horiz-adv-x="1290" d="M20 1239v195h359v-983q0 -57 21.5 -107.5t59.5 -88.5t88 -59.5t107 -21.5t107.5 21.5t88.5 59.5t59.5 88t21.5 108v983h194v-983q0 -100 -35.5 -186.5t-99 -150t-149.5 -99t-187 -35.5q-100 0 -186 35.5t-149.5 99t-99.5 149.5t-36 187v788h-164z" />
<glyph unicode="V" horiz-adv-x="1146" d="M-41 1239v195h307l328 -1106l328 1106h204l-430 -1434h-204l-369 1239h-164z" />
<glyph unicode="W" horiz-adv-x="1474" d="M20 1239v195h359v-1117l256 502h205l256 -502v1117h194v-1434h-235l-318 614l-317 -614h-236v1239h-164z" />
<glyph unicode="X" d="M20 0l369 717l-348 717h215l266 -564l266 564h216l-349 -717l369 -717h-215l-287 573l-286 -573h-216z" />
<glyph unicode="Y" horiz-adv-x="972" d="M-20 1434h215l286 -594h11l286 594h215l-409 -840v-594h-195v594z" />
<glyph unicode="Z" horiz-adv-x="921" d="M-20 0l624 1239h-584v195h902l-625 -1239h604v-195h-921z" />
<glyph unicode="[" horiz-adv-x="655" d="M164 -246v1741h450v-184h-266v-1372h266v-185h-450z" />
<glyph unicode="\" horiz-adv-x="901" d="M0 1434h205l696 -1434h-205z" />
<glyph unicode="]" horiz-adv-x="655" d="M41 -61h266v1372h-266v184h451v-1741h-451v185z" />
<glyph unicode="^" horiz-adv-x="901" d="M41 758l328 676h163l328 -676h-205l-204 430l-205 -430h-205z" />
<glyph unicode="_" horiz-adv-x="675" d="M0 -184h676v-185h-676v185z" />
<glyph unicode="`" horiz-adv-x="430" d="M20 1434h185l164 -328h-123z" />
<glyph unicode="a" horiz-adv-x="942" d="M61 307q0 139 84 223t224 84h245v62q0 61 -41 102t-102 41h-266v185h266q147 0 237.5 -90.5t90.5 -237.5v-676h-430q-139 0 -223.5 84t-84.5 223zM246 307q0 -53 34.5 -88t88.5 -35h245v246h-245q-53 0 -88 -35t-35 -88z" />
<glyph unicode="b" horiz-adv-x="983" d="M20 1249v185h328v-430h184q76 0 140.5 -26t110.5 -72t72 -110.5t26 -140.5v-307q0 -78 -26 -141.5t-72 -109.5t-110.5 -71.5t-140.5 -25.5h-368v1249h-144zM348 184h184q70 0 117 47.5t47 116.5v307q0 70 -47 117t-117 47h-184v-635z" />
<glyph unicode="c" horiz-adv-x="860" d="M102 358v287q0 84 28 153.5t78 120t119.5 78t153.5 27.5q104 0 170 -34t103 -75q43 -47 65 -106l-153 -92q-14 35 -39 61q-23 23 -57.5 42.5t-88.5 19.5q-86 0 -140 -54.5t-54 -140.5v-287q0 -86 54 -140t140 -54q53 0 88 19.5t58 41.5q25 27 39 62l153 -92 q-23 -61 -65 -109q-37 -41 -102.5 -73.5t-170.5 -32.5q-84 0 -153.5 27.5t-119.5 77.5t-78 119.5t-28 153.5z" />
<glyph unicode="d" horiz-adv-x="962" d="M102 348v307q0 76 26 140.5t72 110.5t109.5 72t141.5 26h184v245h-143v185h327v-1434h-368q-78 0 -141.5 25.5t-109.5 71.5t-72 109.5t-26 141.5zM287 348q0 -70 47 -117t117 -47h184v635h-184q-70 0 -117 -47t-47 -117v-307z" />
<glyph unicode="e" horiz-adv-x="921" d="M102 348v307q0 80 28 147.5t77 117t116.5 77t147.5 27.5t147.5 -27.5t116.5 -77t77 -117t28 -147.5v-256h-553v-51q0 -70 47 -117t117 -47h327v-184h-327q-78 0 -141.5 25.5t-109.5 71.5t-72 109.5t-26 141.5zM287 573h368v82q0 78 -53 131.5t-131 53.5t-131 -53.5 t-53 -131.5v-82z" />
<glyph unicode="f" horiz-adv-x="634" d="M20 0v184h185v635h-185v185h185v81q0 76 25.5 140.5t71.5 110.5t109.5 72t141.5 26h102v-185h-102q-70 0 -117 -47t-47 -117v-81h205v-185h-205v-635h184v-184h-553z" />
<glyph unicode="g" horiz-adv-x="849" d="M41 -113q0 57 20.5 102.5t44.5 73.5q29 35 68 60q-23 18 -41 43q-16 23 -28.5 52.5t-12.5 68.5t12.5 68.5t28.5 52.5q18 25 41 43q-33 25 -57 59q-23 29 -39.5 73t-16.5 103q0 70 24 128t67 100t103 66t134 24h481v-185h-141q10 -16 19 -39q8 -18 14 -42.5t6 -51.5 q0 -70 -23.5 -128t-66.5 -100t-103.5 -65.5t-134.5 -23.5h-102q-82 0 -82 -82t82 -82h143q74 0 134.5 -23.5t103.5 -65.5t66.5 -100.5t23.5 -128.5t-23.5 -128t-66.5 -100t-103.5 -65.5t-134.5 -23.5h-112q-74 0 -134.5 23.5t-103.5 65.5t-66.5 100t-23.5 128zM225 -113 q0 -53 41 -93t103 -40h112q61 0 102.5 40t41.5 93t-41 93t-103 40h-112q-61 0 -102.5 -39.5t-41.5 -93.5zM246 686q0 -53 41 -93t102 -40h51q61 0 102.5 40t41.5 93t-41 93t-103 40h-51q-61 0 -102 -40t-41 -93z" />
<glyph unicode="h" d="M20 1249v185h328v-533q25 35 62 62q31 23 76.5 42t107.5 19q61 0 116.5 -25.5t98.5 -71.5t67.5 -110.5t24.5 -140.5v-676h-184v676q0 70 -47 117t-117 47q-47 0 -85 -16.5t-65 -35.5q-33 -23 -55 -51v-737h-184v1249h-144z" />
<glyph unicode="i" horiz-adv-x="573" d="M20 0v184h185v635h-144v185h328v-820h184v-184h-553zM205 1229v205h184v-205h-184z" />
<glyph unicode="j" horiz-adv-x="512" d="M-82 -246h102q70 0 117 47t47 117v901h-143v185h328v-1086q0 -78 -26 -141.5t-72 -109.5t-110.5 -71.5t-140.5 -25.5h-102v184zM184 1229v205h185v-205h-185z" />
<glyph unicode="k" horiz-adv-x="942" d="M20 1249v185h328v-840h174l205 410h195l-256 -502l256 -502h-195l-205 410h-174v-410h-184v1249h-144z" />
<glyph unicode="l" horiz-adv-x="491" d="M20 1249v185h328v-1434h-184v1249h-144z" />
<glyph unicode="m" horiz-adv-x="1556" d="M20 819v185h328v-103q0 2 15.5 21.5t45 42t73.5 41t102 18.5q66 0 112.5 -25.5t79.5 -56.5q37 -37 64 -82q33 45 73 82q35 31 86.5 56.5t116.5 25.5q57 0 110.5 -25.5t95.5 -71.5t66.5 -110.5t24.5 -140.5v-676h-184v676q0 70 -46 117t-108 47q-43 0 -77.5 -16.5 t-61.5 -35.5q-31 -23 -55 -51v-737h-185v676q0 70 -46 117t-107 47q-43 0 -78 -16.5t-62 -35.5q-31 -23 -55 -51v-737h-184v819h-144z" />
<glyph unicode="n" d="M20 819v185h328v-103q25 35 62 62q31 23 76.5 42t107.5 19q61 0 116.5 -25.5t98.5 -71.5t67.5 -110.5t24.5 -140.5v-676h-184v676q0 70 -47 117t-117 47q-47 0 -85 -16.5t-65 -35.5q-33 -23 -55 -51v-737h-184v819h-144z" />
<glyph unicode="o" horiz-adv-x="962" d="M102 358v287q0 84 28 153.5t78 120t119.5 78t153.5 27.5t154 -27.5t120 -78t77.5 -120t27.5 -153.5v-287q0 -84 -27.5 -153.5t-77.5 -119.5t-120 -77.5t-154 -27.5t-153.5 27.5t-119.5 77.5t-78 119.5t-28 153.5zM287 358q0 -86 54 -140t140 -54t140.5 54t54.5 140v287 q0 86 -54.5 140.5t-140.5 54.5t-140 -54.5t-54 -140.5v-287z" />
<glyph unicode="p" horiz-adv-x="983" d="M20 819v185h512q76 0 140.5 -26t110.5 -72t72 -110.5t26 -140.5v-307q0 -78 -26 -141.5t-72 -109.5t-110.5 -71.5t-140.5 -25.5h-184v-430h-184v1249h-144zM348 184h184q70 0 117 47.5t47 116.5v307q0 70 -47 117t-117 47h-184v-635z" />
<glyph unicode="q" horiz-adv-x="983" d="M102 348v307q0 76 26 140.5t72 110.5t109.5 72t141.5 26h512v-185h-144v-1249h-184v430h-184q-78 0 -141.5 25.5t-109.5 71.5t-72 109.5t-26 141.5zM287 348q0 -70 47 -117t117 -47h184v635h-184q-70 0 -117 -47t-47 -117v-307z" />
<glyph unicode="r" horiz-adv-x="716" d="M0 0v184h184v635h-143v185h328v-103q25 35 61 62q31 23 77 42t107 19h82v-205h-123q-47 0 -84.5 -16.5t-64.5 -34.5q-33 -23 -55 -51v-533h184v-184h-553z" />
<glyph unicode="s" horiz-adv-x="819" d="M61 707q0 66 21.5 120t61.5 94t94.5 61.5t119.5 21.5h338v-185h-338q-47 0 -79.5 -32.5t-32.5 -79.5q0 -39 38 -61.5t95 -40t122.5 -37t123 -51.5t95.5 -81t38 -129q0 -139 -84 -223t-223 -84h-369v184h369q53 0 87.5 35t34.5 88q0 39 -37.5 61.5t-95 40t-123 37t-123 51 t-95.5 81t-38 129.5z" />
<glyph unicode="t" horiz-adv-x="675" d="M0 819v185h184v327h185v-327h204v-185h-204v-471q0 -70 47 -117t116 -47h103v-184h-103q-78 0 -141 25.5t-109 71.5t-72 109.5t-26 141.5v471h-184z" />
<glyph unicode="u" d="M20 819v185h328v-656q0 -70 47 -117t117 -47h205v820h184v-1004h-389q-78 0 -141.5 25.5t-109.5 71.5t-71.5 109.5t-25.5 141.5v471h-144z" />
<glyph unicode="v" horiz-adv-x="911" d="M0 819v185h266l215 -717l215 717h195l-307 -1004h-205l-246 819h-133z" />
<glyph unicode="w" horiz-adv-x="1249" d="M20 819v185h328v-707l205 369h164l205 -369v707h184v-1004h-205l-266 481l-266 -481h-205v819h-144z" />
<glyph unicode="x" horiz-adv-x="860" d="M20 0l287 502l-266 502h205l184 -369l184 369h205l-266 -502l287 -502h-205l-205 369l-205 -369h-205z" />
<glyph unicode="y" horiz-adv-x="911" d="M-20 819v185h266l227 -707l203 707h194l-338 -1127q-47 -154 -127.5 -230.5t-220.5 -76.5h-61v184h61q70 0 109 35t55 88l41 133l-276 809h-133z" />
<glyph unicode="z" horiz-adv-x="716" d="M-20 0l430 819h-410v185h717l-430 -820h409v-184h-716z" />
<glyph unicode="{" horiz-adv-x="634" d="M41 532v185h61q47 0 75 27.5t28 74.5v410q0 117 74.5 191.5t191.5 74.5h123v-184h-123q-82 0 -82 -82v-410q0 -53 -19.5 -91t-41.5 -60q-27 -27 -62 -43q35 -16 62 -43q23 -23 42 -61t19 -91v-410q0 -82 82 -81h123v-185h-123q-117 0 -191.5 75t-74.5 191v410 q0 47 -27.5 74.5t-75.5 27.5h-61z" />
<glyph unicode="|" horiz-adv-x="552" d="M184 -164v1761h185v-1761h-185z" />
<glyph unicode="}" horiz-adv-x="634" d="M41 -61h123q82 0 82 81v410q0 53 19.5 91t41.5 61q27 27 62 43q-35 16 -62 43q-23 23 -42 60.5t-19 90.5v410q0 82 -82 82h-123v184h123q117 0 191.5 -74.5t74.5 -191.5v-410q0 -47 27.5 -74.5t74.5 -27.5h62v-185h-62q-47 0 -74.5 -27.5t-27.5 -74.5v-410 q0 -117 -74.5 -191.5t-191.5 -74.5h-123v185z" />
<glyph unicode="~" horiz-adv-x="942" d="M82 451v61q0 123 66.5 194.5t158.5 71.5q61 0 105.5 -25.5t79 -56t63.5 -56.5t59 -26q31 0 56.5 26t25.5 56v62h164v-62q0 -123 -66.5 -194.5t-158.5 -71.5q-61 0 -105.5 25.5t-79 56.5t-63.5 56.5t-59 25.5q-31 0 -56.5 -25.5t-25.5 -56.5v-61h-164z" />
<glyph unicode="&#xa2;" horiz-adv-x="860" d="M102 358v287q0 162 82 254t205 115v153h184v-153q70 -12 117 -46t76 -69q35 -41 53 -90l-153 -92q-14 35 -39 61q-23 23 -57.5 42.5t-88.5 19.5q-86 0 -140 -54.5t-54 -140.5v-287q0 -86 54 -140t140 -54q53 0 88 19.5t58 41.5q25 27 39 62l153 -92q-18 -49 -53 -91 q-29 -35 -76 -69.5t-117 -44.5v-154h-184v154q-123 23 -205 115t-82 253z" />
<glyph unicode="&#xa3;" horiz-adv-x="1003" d="M61 0v184h62q47 0 85 41t38 103v307h-164v184h164v318q0 66 25.5 123t68.5 100t100.5 68.5t122.5 25.5q66 0 123 -25.5t100 -68.5t69 -100.5t26 -122.5v-31h-185v31q0 61 -35.5 97t-97.5 36q-61 0 -97 -36t-36 -97v-318h307v-184h-307v-307q0 -39 -10 -67t-21 -44 q-14 -20 -30 -33h553v-184h-861z" />
<glyph unicode="&#xa5;" horiz-adv-x="1013" d="M0 1434h215l287 -594h10l287 594h215l-389 -799h194v-184h-215v-103h215v-184h-215v-164h-194v164h-215v184h215v103h-215v184h194z" />
<glyph unicode="&#xa8;" horiz-adv-x="634" d="M61 1249v185h185v-185h-185zM389 1249v185h184v-185h-184z" />
<glyph unicode="&#xa9;" horiz-adv-x="1597" d="M102 696q0 145 54.5 272.5t148.5 221.5t221 148.5t273 54.5q145 0 272 -54.5t221 -148.5t148.5 -221t54.5 -273q0 -145 -54.5 -272t-148.5 -221t-221 -148.5t-272 -54.5t-272.5 54.5t-221.5 148.5t-148.5 221t-54.5 272zM266 696q0 -109 43 -205t116 -168.5t169 -115.5 t205 -43q106 0 203.5 43t170 115.5t115.5 168.5t43 205q0 106 -43 203.5t-115.5 170.5t-170 116t-203.5 43q-109 0 -205 -43t-169 -116t-116 -170t-43 -204zM502 696q0 70 25.5 129.5t68.5 103.5t100.5 69.5t122.5 25.5q70 0 120 -24.5t83 -53.5q37 -35 63 -76l-143 -82 q-12 18 -31 35q-16 14 -38.5 25.5t-53.5 11.5q-61 0 -107 -47t-46 -117t46 -117t107 -47q31 0 53.5 10.5t38.5 24.5q18 16 31 37l143 -82q-27 -43 -63 -78q-33 -29 -83 -52t-120 -23q-66 0 -123 25.5t-100 69.5t-68.5 103.5t-25.5 128.5z" />
<glyph unicode="&#xab;" horiz-adv-x="942" d="M61 492l246 409h205l-246 -409l246 -410h-205zM430 492l246 409h205l-246 -409l246 -410h-205z" />
<glyph unicode="&#xad;" horiz-adv-x="839" d="M82 532v185h676v-185h-676z" />
<glyph unicode="&#xae;" horiz-adv-x="1597" d="M102 696q0 145 54.5 272.5t148.5 221.5t221 148.5t273 54.5q145 0 272 -54.5t221 -148.5t148.5 -221t54.5 -273q0 -145 -54.5 -272t-148.5 -221t-221 -148.5t-272 -54.5t-272.5 54.5t-221.5 148.5t-148.5 221t-54.5 272zM266 696q0 -109 43 -205t116 -168.5t169 -115.5 t205 -43q106 0 203.5 43t170 115.5t115.5 168.5t43 205q0 106 -43 203.5t-115.5 170.5t-170 116t-203.5 43q-109 0 -205 -43t-169 -116t-116 -170t-43 -204zM573 369v655h267q49 0 92 -18.5t74.5 -50t50 -74.5t18.5 -93q0 -47 -15.5 -81.5t-31.5 -57.5q-20 -27 -45 -45 l113 -235h-185l-82 184h-92v-184h-164zM737 717h103q31 0 51 20.5t20 50.5q0 31 -20.5 51.5t-50.5 20.5h-103v-143z" />
<glyph unicode="&#xb4;" horiz-adv-x="471" d="M61 1106l164 328h185l-226 -328h-123z" />
<glyph unicode="&#xb8;" horiz-adv-x="450" d="M61 -307q12 -6 29 -10q31 -10 74 -11q31 0 51.5 19.5t20.5 42.5t-20.5 42t-51.5 19h-62l62 205h82l-21 -72q78 -16 121 -62t43 -132q0 -92 -58.5 -148.5t-166.5 -56.5q-43 0 -74 10q-16 4 -29 10v144z" />
<glyph unicode="&#xbb;" horiz-adv-x="942" d="M61 82l246 410l-246 409h205l246 -409l-246 -410h-205zM430 82l246 410l-246 409h205l246 -409l-246 -410h-205z" />
<glyph unicode="&#x2c6;" horiz-adv-x="839" d="M61 1167l267 267h184l266 -267h-215l-143 144l-144 -144h-215z" />
<glyph unicode="&#x2da;" horiz-adv-x="552" d="M61 1219q0 92 61.5 153.5t153.5 61.5t154 -61.5t62 -153.5t-61.5 -153.5t-154.5 -61.5q-92 0 -153.5 61t-61.5 154zM195 1219q0 -31 25.5 -56.5t55.5 -25.5q31 0 56.5 25.5t25.5 56.5t-25.5 56t-56.5 25t-56 -25.5t-25 -55.5z" />
<glyph unicode="&#x2dc;" horiz-adv-x="716" d="M61 1167v62q0 109 53.5 167t131.5 58q45 0 77.5 -22.5t55 -49t39 -49t33.5 -22.5q23 0 37 19.5t14 41.5v62h153v-62q0 -109 -53 -167t-131 -58q-47 0 -79 22.5t-54.5 49t-39.5 49t-32 22.5q-23 0 -37 -19.5t-14 -41.5v-62h-154z" />
<glyph unicode="&#x401;" horiz-adv-x="1085" d="M184 0h860v195h-665v430h481v194h-481v420h665v195h-860v-1434zM358 1638v185h185v-185h-185zM686 1638v185h184v-185h-184z" />
<glyph unicode="&#x402;" horiz-adv-x="1198" d="M-41 1239v195h789v-195h-297v-369h194q100 0 186.5 -35.5t149.5 -99t99 -149.5t36 -187v-235q0 -80 -25.5 -146.5t-71.5 -113.5t-110.5 -73t-140.5 -26v195q61 0 107.5 47t46.5 117v235q0 57 -21.5 107.5t-59.5 88.5t-88.5 59.5t-107.5 21.5h-194v-676h-195v1239h-297z " />
<glyph unicode="&#x403;" horiz-adv-x="921" d="M20 1239v195h902v-195h-543v-1239h-195v1239h-164zM409 1577l164 328h185l-226 -328h-123z" />
<glyph unicode="&#x404;" horiz-adv-x="1075" d="M143 451v532q0 100 36 186t99.5 149.5t149.5 99.5t186 36q117 0 196 -42t130 -91q57 -59 94 -133l-164 -103q-20 49 -55 86q-29 33 -79 61t-122 28q-57 0 -107 -21.5t-88 -59.5t-59.5 -88.5t-21.5 -107.5v-164h369v-184h-369v-184q0 -57 21.5 -107.5t59.5 -88.5t88 -59.5 t107 -21.5q72 0 122 26.5t79 59.5q35 37 55 88l164 -102q-37 -76 -94 -133q-51 -51 -130 -92t-196 -41q-100 0 -186 35.5t-149.5 99t-99.5 149.5t-36 187z" />
<glyph unicode="&#x405;" d="M82 1034q0 84 30.5 157t84 127t127 85t157.5 31h400v-195h-400q-92 0 -148.5 -56.5t-56.5 -148.5q0 -70 51.5 -111.5t127 -72.5t165 -61.5t165 -75.5t127 -114t51.5 -179q0 -88 -33 -165t-89.5 -133t-133 -89t-164.5 -33h-441v195h441q100 0 162.5 62t62.5 163 q0 70 -51 111.5t-127 72.5t-165 61.5t-165 75.5t-127 113.5t-51 179.5z" />
<glyph unicode="&#x406;" horiz-adv-x="747" d="M20 0v195h256v1044h-256v195h707v-195h-256v-1044h256v-195h-707z" />
<glyph unicode="&#x407;" horiz-adv-x="747" d="M20 0v195h256v1044h-256v195h707v-195h-256v-1044h256v-195h-707zM112 1659v185h185v-185h-185zM440 1659v185h184v-185h-184z" />
<glyph unicode="&#x408;" horiz-adv-x="798" d="M0 0v195h92q53 0 100.5 19t82 54t54 82t19.5 101v788h-256v195h707v-195h-256v-788q0 -96 -35 -178.5t-95.5 -142.5t-142.5 -95t-178 -35h-92z" />
<glyph unicode="&#x409;" horiz-adv-x="1853" d="M-41 0v195h164l369 1239h573v-574h276q88 0 167 -33.5t137.5 -92t92.5 -137.5t34 -167t-34 -167t-92.5 -137t-137 -92t-167.5 -34h-471v1239h-235l-369 -1239h-307zM1065 195h276q49 0 92.5 18t75 50t50 75t18.5 92t-18.5 92t-50 75t-74.5 50.5t-93 18.5h-276v-471z" />
<glyph unicode="&#x40a;" horiz-adv-x="1873" d="M20 1239v195h359v-574h512v574h194v-574h277q88 0 167 -33.5t137 -92t92 -137.5t34 -167t-34 -167t-92 -137t-137 -92t-167 -34h-471v666h-512v-666h-195v1239h-164zM1085 195h277q49 0 92 18t75 50t50 75t18 92t-18 92t-50 75t-75 50.5t-92 18.5h-277v-471z" />
<glyph unicode="&#x40b;" horiz-adv-x="1239" d="M-41 1239v195h789v-195h-297v-369h194q100 0 186.5 -35.5t149.5 -99t99 -149.5t36 -187v-399h-194v399q0 57 -21.5 107.5t-59.5 88.5t-88.5 59.5t-107.5 21.5h-194v-676h-195v1239h-297z" />
<glyph unicode="&#x40c;" horiz-adv-x="1116" d="M20 1239v195h359v-615h194l308 615h215l-359 -717l359 -717h-215l-308 625h-194v-625h-195v1239h-164zM505 1577l164 328h185l-226 -328h-123z" />
<glyph unicode="&#x40e;" horiz-adv-x="1085" d="M-41 1239v195h307l328 -830l287 830h204l-389 -1127q-59 -170 -145 -248.5t-234 -78.5h-81v194h81q78 0 118 36t57 97l-369 932h-164zM266 1864l175 21q16 -53 53 -88t90 -35t90 34.5t53 88.5l174 -21q-31 -117 -112.5 -191.5t-204.5 -74.5t-205 74.5t-113 191.5z" />
<glyph unicode="&#x40f;" horiz-adv-x="1249" d="M20 1239v195h359v-1239h512v1239h194v-1434h-358v-256h-184v256h-359v1239h-164z" />
<glyph unicode="&#x410;" horiz-adv-x="1105" d="M0 0l451 1434h204l451 -1434h-205l-113 348h-471l-112 -348h-205zM369 532h368l-184 584z" />
<glyph unicode="&#x411;" horiz-adv-x="1187" d="M41 0v195h164v1044h-164v195h922v-195h-564v-379h277q88 0 167 -33.5t137 -92t92 -137.5t34 -167t-34 -167t-92 -137t-137 -92t-167 -34h-635zM399 195h277q49 0 92 18t74.5 50t50 75t18.5 92t-18.5 92t-50 75t-74.5 50.5t-92 18.5h-277v-471z" />
<glyph unicode="&#x412;" horiz-adv-x="1187" d="M41 0v195h164v1044h-164v195h604q84 0 156.5 -31t127 -85t85 -127t30.5 -157q0 -74 -25.5 -125t-55.5 -86q-37 -39 -82 -65q57 -31 102 -80q39 -41 70.5 -105.5t31.5 -152.5t-32.5 -165t-89 -133t-133 -89t-164.5 -33h-363h-262zM399 195h267q100 0 162.5 62t62.5 163 q0 100 -62.5 162.5t-162.5 62.5h-267v-450zM399 829h246q92 0 148.5 56.5t56.5 148.5t-56.5 148.5t-148.5 56.5h-246v-410z" />
<glyph unicode="&#x413;" horiz-adv-x="921" d="M20 1239v195h902v-195h-543v-1239h-195v1239h-164z" />
<glyph unicode="&#x414;" horiz-adv-x="1249" d="M-20 195h112l369 1239h573v-1239h154v-441h-195v246h-819v-246h-194v441zM297 195h543v1044h-236z" />
<glyph unicode="&#x415;" horiz-adv-x="1085" d="M184 0v1434h860v-195h-665v-420h481v-194h-481v-430h665v-195h-860z" />
<glyph unicode="&#x416;" horiz-adv-x="1689" d="M-20 1239v195h276l307 -615h195v615h194v-615h195l307 615h215l-358 -717l358 -717h-215l-307 625h-195v-625h-194v625h-195l-307 -625h-215l358 717l-256 522h-163z" />
<glyph unicode="&#x417;" horiz-adv-x="1024" d="M41 0v195h461q100 0 162.5 62t62.5 163q0 100 -62.5 162.5t-162.5 62.5h-236v184h215q92 0 148.5 56.5t56.5 148.5t-56.5 148.5t-148.5 56.5h-420v195h420q84 0 157 -31t127 -85t85 -127t31 -157q0 -74 -26 -125t-56 -86q-37 -39 -82 -65q57 -31 102 -80 q39 -41 71 -105.5t32 -152.5t-33 -165t-89.5 -133t-133 -89t-164.5 -33h-461z" />
<glyph unicode="&#x418;" horiz-adv-x="1269" d="M20 1239v195h359v-1045l512 1045h194v-1434h-194v1044l-512 -1044h-195v1239h-164z" />
<glyph unicode="&#x419;" horiz-adv-x="1269" d="M20 1239v195h359v-1045l512 1045h194v-1434h-194v1044l-512 -1044h-195v1239h-164zM317 1884l175 21q16 -53 53 -88t90 -35t90 34.5t53 88.5l174 -21q-31 -117 -112.5 -191.5t-204.5 -74.5t-205 74.5t-113 191.5z" />
<glyph unicode="&#x41a;" horiz-adv-x="1116" d="M20 1239v195h359v-615h194l308 615h215l-359 -717l359 -717h-215l-308 625h-194v-625h-195v1239h-164z" />
<glyph unicode="&#x41b;" horiz-adv-x="1249" d="M-41 0v195h164l369 1239h573v-1434h-195v1239h-235l-369 -1239h-307z" />
<glyph unicode="&#x41c;" horiz-adv-x="1474" d="M184 0v1434h236l317 -615l318 615h235v-1239h164v-195h-358v1116l-256 -502h-205l-256 502v-1116h-195z" />
<glyph unicode="&#x41d;" horiz-adv-x="1269" d="M20 1239v195h359v-615h512v615h194v-1434h-194v625h-512v-625h-195v1239h-164z" />
<glyph unicode="&#x41e;" horiz-adv-x="1228" d="M143 451v532q0 100 36 186t99.5 149.5t149.5 99.5t186 36t186.5 -36t150 -99.5t99 -149.5t35.5 -186v-532q0 -100 -35.5 -186.5t-99 -150t-149.5 -99t-187 -35.5q-100 0 -186 35.5t-149.5 99t-99.5 149.5t-36 187zM338 451q0 -57 21.5 -107.5t59.5 -88.5t88 -59.5 t107 -21.5t107.5 21.5t88.5 59.5t59.5 88t21.5 108v532q0 57 -21.5 107.5t-59.5 88.5t-88 59.5t-108 21.5q-57 0 -107 -21.5t-88 -59.5t-59.5 -88.5t-21.5 -107.5v-532z" />
<glyph unicode="&#x41f;" horiz-adv-x="1269" d="M20 1239v195h1065v-1434h-194v1239h-512v-1239h-195v1239h-164z" />
<glyph unicode="&#x420;" horiz-adv-x="1146" d="M20 1239v195h635q84 0 159 -33t130 -88.5t88 -130t33 -158.5t-33 -158.5t-88 -130t-130 -88.5t-159 -33h-276v-614h-195v809h471q92 0 153.5 61.5t61.5 153.5t-61 153.5t-154 61.5h-635z" />
<glyph unicode="&#x421;" horiz-adv-x="1075" d="M143 451v532q0 100 36 186t99.5 149.5t149.5 99.5t186 36q117 0 196 -42t130 -91q57 -59 94 -133l-164 -103q-20 49 -55 86q-29 33 -79 61t-122 28q-57 0 -107 -21.5t-88 -59.5t-59.5 -88.5t-21.5 -107.5v-532q0 -57 21.5 -107.5t59.5 -88.5t88 -59.5t107 -21.5 q72 0 122 26.5t79 59.5q35 37 55 88l164 -102q-37 -76 -94 -133q-51 -51 -130 -92t-196 -41q-100 0 -186 35.5t-149.5 99t-99.5 149.5t-36 187z" />
<glyph unicode="&#x422;" horiz-adv-x="1034" d="M61 645v195h912v-195h-359v-645h-194v645h-359zM61 1239v195h912v-195h-912z" />
<glyph unicode="&#x423;" horiz-adv-x="1085" d="M-41 1239v195h307l328 -830l287 830h204l-389 -1127q-59 -170 -145 -248.5t-234 -78.5h-81v194h81q78 0 118 36t57 97l-369 932h-164z" />
<glyph unicode="&#x424;" horiz-adv-x="1607" d="M61 686q0 88 34 167t92.5 137.5t137 92t167.5 33.5h215v164h-164v195h358v-359h215q88 0 167 -33.5t137.5 -92t92 -137.5t33.5 -167t-33.5 -167t-92 -137t-137.5 -92t-167 -34h-215v-276h-194v276h-215q-88 0 -167 34t-137.5 92t-92.5 137t-34 167zM256 686 q0 -49 18.5 -92t50 -75t74.5 -50t93 -18h215v471h-215q-49 0 -92.5 -18.5t-75 -50.5t-50 -75t-18.5 -92zM901 451h215q49 0 92 18t75 50t50.5 75t18.5 92t-18.5 92t-50.5 75t-75 50.5t-92 18.5h-215v-471z" />
<glyph unicode="&#x425;" d="M20 0l359 717l-338 717h215l266 -564l266 564h216l-338 -717l358 -717h-215l-287 573l-286 -573h-216z" />
<glyph unicode="&#x426;" horiz-adv-x="1300" d="M20 1239v195h359v-1239h512v1239h194v-1239h154v-451h-195v256h-860v1239h-164z" />
<glyph unicode="&#x427;" horiz-adv-x="1228" d="M0 1239v195h358v-461q0 -57 21.5 -107.5t59.5 -88.5t88.5 -59.5t107.5 -21.5h215v738h194v-1434h-194v502h-215q-100 0 -186.5 35.5t-149.5 99t-99 149.5t-36 187v266h-164z" />
<glyph unicode="&#x428;" horiz-adv-x="1863" d="M20 1239v195h359v-748h461v563h184v-563h461v748h194v-942h-1495v747h-164zM184 0v195h1495v-195h-1495z" />
<glyph unicode="&#x429;" horiz-adv-x="1894" d="M20 1239v195h359v-1239h461v1054h184v-1054h461v1239h194v-1239h154v-441h-195v246h-1454v1239h-164z" />
<glyph unicode="&#x42a;" horiz-adv-x="1208" d="M-41 1239v195h481v-574h256q88 0 167 -33.5t137.5 -92t92 -137.5t33.5 -167t-33.5 -167t-92 -137t-137.5 -92t-167 -34h-450v1239h-287zM440 195h256q49 0 92 18t75 50t50.5 75t18.5 92t-18.5 92t-50.5 75t-75 50.5t-92 18.5h-256v-471z" />
<glyph unicode="&#x42b;" horiz-adv-x="1607" d="M184 0v1434h195v-574h256q88 0 167 -33.5t137 -92t92 -137.5t34 -167t-34 -167t-92 -137t-137 -92t-167 -34h-451zM379 195h256q49 0 92 18t75 50t50 75t18 92t-18 92t-50 75t-75 50.5t-92 18.5h-256v-471zM1229 0v1434h194v-1434h-194z" />
<glyph unicode="&#x42c;" horiz-adv-x="1167" d="M184 0v1434h195v-574h276q88 0 167 -33.5t137.5 -92t92 -137.5t33.5 -167t-33.5 -167t-92 -137t-137.5 -92t-167 -34h-471zM379 195h276q49 0 92.5 18t75 50t50 75t18.5 92t-18.5 92t-50 75t-74.5 50.5t-93 18.5h-276v-471z" />
<glyph unicode="&#x42d;" horiz-adv-x="1075" d="M41 246l164 102q20 -51 55 -88q29 -33 78 -59.5t123 -26.5q57 0 107 21.5t88 59.5t59.5 88t21.5 108v184h-368v184h368v164q0 57 -21.5 107.5t-59.5 88.5t-88 59.5t-107 21.5q-74 0 -123 -28t-78 -61q-35 -37 -55 -86l-164 103q35 74 94 133q49 49 129 91t197 42 q100 0 186 -36t149.5 -99.5t99.5 -149.5t36 -186v-532q0 -100 -36 -186.5t-99.5 -150t-149.5 -99t-186 -35.5q-117 0 -197 40.5t-129 92.5q-59 57 -94 133z" />
<glyph unicode="&#x42e;" horiz-adv-x="1710" d="M20 1239v195h359v-615h287v185q0 96 34.5 178t95 142t142.5 95t178 35t178 -35t142.5 -95t95.5 -142t35 -178v-574q0 -96 -35 -178t-95.5 -142.5t-142.5 -95t-178 -34.5t-178 34.5t-142.5 95t-95 142.5t-34.5 178v195h-287v-625h-195v1239h-164zM860 430q0 -53 19.5 -100 t54.5 -82t82 -54.5t100 -19.5t100.5 19.5t82 54.5t54 82t19.5 100v574q0 53 -19.5 100t-54 82t-82 54.5t-100.5 19.5t-100 -19.5t-82 -54.5t-54.5 -82t-19.5 -100v-574z" />
<glyph unicode="&#x42f;" horiz-adv-x="1177" d="M61 0l318 635q-80 31 -143 84q-53 45 -98.5 118.5t-45.5 186.5q0 84 33 158.5t88 130t130 88.5t159 33h655v-195h-164v-1239h-194v614h-226l-297 -614h-215zM287 1024q0 -92 61.5 -153.5t153.5 -61.5h297v430h-297q-92 0 -153.5 -61.5t-61.5 -153.5z" />
<glyph unicode="&#x430;" horiz-adv-x="942" d="M61 307q0 139 84 223t224 84h245v62q0 61 -41 102t-102 41h-266v185h266q147 0 237.5 -90.5t90.5 -237.5v-676h-430q-139 0 -223.5 84t-84.5 223zM246 307q0 -53 34.5 -88t88.5 -35h245v246h-245q-53 0 -88 -35t-35 -88z" />
<glyph unicode="&#x431;" horiz-adv-x="962" d="M102 358v666q0 76 26 140.5t72 110.5t109.5 71.5t141.5 25.5h81q82 0 82 82h185q0 -123 -72 -194.5t-195 -71.5h-81q-70 0 -117 -47t-47 -117v-102h194q84 0 154 -28t120 -78t77.5 -119.5t27.5 -153.5v-185q0 -84 -27.5 -153.5t-77.5 -119.5t-120 -77.5t-154 -27.5 t-153.5 27.5t-119.5 77.5t-78 119.5t-28 153.5zM287 358q0 -86 54 -140t140 -54t140.5 54t54.5 140v185q0 86 -54.5 140t-140.5 54h-194v-379z" />
<glyph unicode="&#x432;" horiz-adv-x="942" d="M41 0v184h123v635h-123v185h491q131 0 209 -78t78 -209q0 -53 -19.5 -88t-41.5 -58q-27 -25 -62 -39q45 -20 82 -51q31 -29 56.5 -71t25.5 -103q0 -139 -84 -223t-223 -84h-512zM348 184h205q53 0 88 35t35 88t-35 88t-88 35h-205v-246zM348 614h184q47 0 75 28t28 75 t-27.5 74.5t-75.5 27.5h-184v-205z" />
<glyph unicode="&#x433;" horiz-adv-x="757" d="M20 819v185h738v-185h-410v-819h-184v819h-144z" />
<glyph unicode="&#x434;" horiz-adv-x="1024" d="M-20 184h112l246 820h512v-820h133v-399h-184v215h-635v-215h-184v399zM276 184h390v635h-195z" />
<glyph unicode="&#x435;" horiz-adv-x="921" d="M102 348v307q0 80 28 147.5t77 117t116.5 77t147.5 27.5t147.5 -27.5t116.5 -77t77 -117t28 -147.5v-256h-553v-51q0 -70 47 -117t117 -47h327v-184h-327q-78 0 -141.5 25.5t-109.5 71.5t-72 109.5t-26 141.5zM287 573h368v82q0 78 -53 131.5t-131 53.5t-131 -53.5 t-53 -131.5v-82z" />
<glyph unicode="&#x436;" horiz-adv-x="1372" d="M-20 819v185h235l205 -410h174v410h184v-410h174l205 410h195l-256 -502l256 -502h-195l-205 410h-174v-410h-184v410h-174l-205 -410h-195l256 502l-163 317h-133z" />
<glyph unicode="&#x437;" horiz-adv-x="808" d="M41 0v184h379q53 0 88 35t35 88t-35 88t-88 35h-195v184h174q47 0 75 28t28 75t-28 74.5t-75 27.5h-338v185h338q131 0 209 -78t78 -209q0 -51 -17.5 -86t-40 -56.5t-42 -30.5t-23.5 -12q2 -2 28.5 -14t56.5 -39.5t54.5 -69.5t24.5 -102q0 -139 -84 -223t-223 -84h-379z " />
<glyph unicode="&#x438;" d="M20 819v185h328v-666l369 666h184v-1004h-184v666l-369 -666h-184v819h-144z" />
<glyph unicode="&#x439;" d="M20 819v185h328v-666l369 666h184v-1004h-184v666l-369 -666h-184v819h-144zM256 1393l154 20q16 -47 45.5 -74.5t76.5 -27.5t77 27.5t46 74.5l154 -20q-12 -47 -36.5 -88t-59.5 -72t-81 -48.5t-100 -17.5q-53 0 -99 17.5t-81 48.5t-59.5 72t-36.5 88z" />
<glyph unicode="&#x43a;" horiz-adv-x="942" d="M20 819v185h328v-410h174l205 410h195l-256 -502l256 -502h-195l-205 410h-174v-410h-184v819h-144z" />
<glyph unicode="&#x43b;" horiz-adv-x="993" d="M-41 0v184h133l246 820h512v-1004h-184v819h-195l-246 -819h-266z" />
<glyph unicode="&#x43c;" horiz-adv-x="1249" d="M143 0v1004h205l266 -482l267 482h204v-820h144v-184h-328v707l-205 -369h-164l-204 369v-707h-185z" />
<glyph unicode="&#x43d;" d="M20 819v185h328v-410h369v410h184v-1004h-184v410h-369v-410h-184v819h-144z" />
<glyph unicode="&#x43e;" horiz-adv-x="962" d="M102 358v287q0 84 28 153.5t78 120t119.5 78t153.5 27.5t154 -27.5t120 -78t77.5 -120t27.5 -153.5v-287q0 -84 -27.5 -153.5t-77.5 -119.5t-120 -77.5t-154 -27.5t-153.5 27.5t-119.5 77.5t-78 119.5t-28 153.5zM287 358q0 -86 54 -140t140 -54t140.5 54t54.5 140v287 q0 86 -54.5 140.5t-140.5 54.5t-140 -54.5t-54 -140.5v-287z" />
<glyph unicode="&#x43f;" d="M20 819v185h881v-1004h-184v819h-369v-819h-184v819h-144z" />
<glyph unicode="&#x440;" horiz-adv-x="983" d="M20 819v185h512q76 0 140.5 -26t110.5 -72t72 -110.5t26 -140.5v-307q0 -78 -26 -141.5t-72 -109.5t-110.5 -71.5t-140.5 -25.5h-184v-430h-184v1249h-144zM348 184h184q70 0 117 47.5t47 116.5v307q0 70 -47 117t-117 47h-184v-635z" />
<glyph unicode="&#x441;" horiz-adv-x="860" d="M102 358v287q0 84 28 153.5t78 120t119.5 78t153.5 27.5q104 0 170 -34t103 -75q43 -47 65 -106l-153 -92q-14 35 -39 61q-23 23 -57.5 42.5t-88.5 19.5q-86 0 -140 -54.5t-54 -140.5v-287q0 -86 54 -140t140 -54q53 0 88 19.5t58 41.5q25 27 39 62l153 -92 q-23 -61 -65 -109q-37 -41 -102.5 -73.5t-170.5 -32.5q-84 0 -153.5 27.5t-119.5 77.5t-78 119.5t-28 153.5z" />
<glyph unicode="&#x442;" horiz-adv-x="757" d="M0 819v185h758v-185h-287v-819h-184v819h-287z" />
<glyph unicode="&#x443;" horiz-adv-x="911" d="M-20 819v185h266l227 -707l203 707h194l-338 -1127q-47 -154 -127.5 -230.5t-220.5 -76.5h-61v184h61q70 0 109 35t55 88l41 133l-276 809h-133z" />
<glyph unicode="&#x444;" horiz-adv-x="1290" d="M102 379v246q0 84 28 153.5t78 119.5t119.5 78t153.5 28h72v245h-143v185h327v-430h72q84 0 153.5 -28t120 -78t78 -119.5t27.5 -153.5v-246q0 -84 -27.5 -153.5t-78 -120t-120 -78t-153.5 -27.5h-72v-430h-184v430h-72q-84 0 -153.5 27.5t-119.5 78t-78 120t-28 153.5z M287 379q0 -86 54 -140.5t140 -54.5h72v635h-72q-86 0 -140 -54t-54 -140v-246zM737 184h72q86 0 140.5 54.5t54.5 140.5v246q0 86 -54.5 140t-140.5 54h-72v-635z" />
<glyph unicode="&#x445;" horiz-adv-x="860" d="M20 0l287 502l-266 502h205l184 -369l184 369h205l-266 -502l287 -502h-205l-205 369l-205 -369h-205z" />
<glyph unicode="&#x446;" horiz-adv-x="1075" d="M20 819v185h328v-820h369v820h184v-820h133v-399h-184v215h-686v819h-144z" />
<glyph unicode="&#x447;" horiz-adv-x="1003" d="M0 819v185h328v-328q0 -70 47 -117t117 -47h184v492h184v-1004h-184v328h-184q-78 0 -141.5 25.5t-109.5 71.5t-72 109.5t-26 141.5v143h-143z" />
<glyph unicode="&#x448;" horiz-adv-x="1474" d="M20 819v185h328v-431h307v308h185v-308h307v431h184v-615h-1167v430h-144zM164 0v184h1167v-184h-1167z" />
<glyph unicode="&#x449;" horiz-adv-x="1505" d="M20 819v185h328v-820h307v697h185v-697h307v820h184v-820h133v-399h-184v215h-1116v819h-144z" />
<glyph unicode="&#x44a;" horiz-adv-x="921" d="M-41 819v185h410v-369h174q70 0 128 -23.5t100 -65.5t65.5 -100.5t23.5 -128.5t-23.5 -128t-65.5 -100t-100.5 -65.5t-127.5 -23.5h-359v819h-225zM369 184h174q53 0 93 40t40 93t-40 93.5t-93 40.5h-174v-267z" />
<glyph unicode="&#x44b;" horiz-adv-x="1269" d="M143 0v1004h185v-369h174q70 0 128 -23.5t100 -65.5t65.5 -100.5t23.5 -128.5t-23.5 -128t-65.5 -100t-100.5 -65.5t-127.5 -23.5h-359zM328 184h174q53 0 93 40t40 93t-40 93.5t-93 40.5h-174v-267zM942 0v1006h184v-1006h-184z" />
<glyph unicode="&#x44c;" horiz-adv-x="901" d="M143 0v1004h185v-369h194q70 0 128.5 -23.5t100.5 -65.5t65.5 -100.5t23.5 -128.5t-23.5 -128t-65.5 -100t-100.5 -65.5t-128.5 -23.5h-379zM328 184h194q53 0 93 40t40 93t-40 93.5t-93 40.5h-194v-267z" />
<glyph unicode="&#x44d;" horiz-adv-x="860" d="M41 195l154 92q14 -35 38 -62q23 -23 58 -42t88 -19q86 0 140 54t54 140v52h-266v184h266v51q0 86 -54 140.5t-140 54.5q-53 0 -88 -19.5t-58 -42.5q-25 -27 -38 -61l-154 92q23 59 65 106q37 41 102.5 75t170.5 34q84 0 153.5 -27.5t119.5 -78t78 -120t28 -153.5v-287 q0 -84 -28 -153.5t-78 -119.5t-119.5 -77.5t-153.5 -27.5q-104 0 -170 32.5t-103 73.5q-43 47 -65 109z" />
<glyph unicode="&#x44e;" horiz-adv-x="1351" d="M20 819v185h328v-410h184v72q0 80 26 146.5t73 113.5t113.5 72.5t146.5 25.5t146.5 -25.5t113.5 -72.5t72.5 -114t25.5 -146v-328q0 -80 -25.5 -146.5t-72.5 -113.5t-113.5 -72.5t-146.5 -25.5t-146.5 25.5t-113.5 72.5t-73 113.5t-26 146.5v72h-184v-410h-184v819h-144z M717 338q0 -78 48 -126t126 -48t126 48t48 126v328q0 78 -48 126t-126 48t-126 -48.5t-48 -125.5v-328z" />
<glyph unicode="&#x44f;" horiz-adv-x="942" d="M41 0l205 410q-53 25 -92 63q-35 35 -64 88t-29 135q0 66 24 122t64.5 97t97 65t122.5 24h553v-185h-144v-819h-184v389h-164l-194 -389h-195zM246 696q0 -53 34.5 -88t88.5 -35h225v246h-225q-53 0 -88 -35t-35 -88z" />
<glyph unicode="&#x451;" horiz-adv-x="921" d="M102 348q0 -78 26 -141.5t72 -109.5t109.5 -71.5t141.5 -25.5h327v184h-327q-70 0 -117 47.5t-47 116.5v51h553v256q0 80 -28 147.5t-77 117t-116.5 77t-147.5 27.5t-147.5 -27.5t-116.5 -77t-77 -117t-28 -147.5v-307zM205 1208v185h184v-185h-184zM287 573v82 q0 78 53 131.5t131 53.5t131 -53.5t53 -131.5v-82h-368zM532 1208v185h185v-185h-185z" />
<glyph unicode="&#x452;" horiz-adv-x="1064" d="M0 1065v184h184v185h185v-185h204v-184h-204v-266q25 35 61 61q31 23 77 42.5t107 19.5t116.5 -26t98.5 -72t68 -110.5t25 -140.5v-409q0 -78 -26 -141.5t-72 -109.5t-110.5 -71.5t-140.5 -25.5v184q70 0 117 47t47 117v409q0 70 -47 117t-117 47q-47 0 -84.5 -16 t-64.5 -35q-33 -23 -55 -51v-635h-185v1065h-184z" />
<glyph unicode="&#x453;" horiz-adv-x="757" d="M20 819v185h738v-185h-410v-819h-184v819h-144zM327 1147l164 328h185l-226 -328h-123z" />
<glyph unicode="&#x454;" horiz-adv-x="860" d="M102 358v287q0 84 28 153.5t78 120t119.5 78t153.5 27.5q104 0 170 -34t103 -75q43 -47 65 -106l-153 -92q-14 35 -39 61q-23 23 -57.5 42.5t-88.5 19.5q-86 0 -140 -54.5t-54 -140.5v-51h266v-184h-266v-52q0 -86 54 -140t140 -54q53 0 88 19.5t58 41.5q25 27 39 62 l153 -92q-23 -61 -65 -109q-37 -41 -102.5 -73.5t-170.5 -32.5q-84 0 -153.5 27.5t-119.5 77.5t-78 119.5t-28 153.5z" />
<glyph unicode="&#x455;" horiz-adv-x="819" d="M61 707q0 66 21.5 120t61.5 94t94.5 61.5t119.5 21.5h338v-185h-338q-47 0 -79.5 -32.5t-32.5 -79.5q0 -39 38 -61.5t95 -40t122.5 -37t123 -51.5t95.5 -81t38 -129q0 -139 -84 -223t-223 -84h-369v184h369q53 0 87.5 35t34.5 88q0 39 -37.5 61.5t-95 40t-123 37t-123 51 t-95.5 81t-38 129.5z" />
<glyph unicode="&#x456;" horiz-adv-x="573" d="M20 0v184h185v635h-144v185h328v-820h184v-184h-553zM205 1229v205h184v-205h-184z" />
<glyph unicode="&#x457;" horiz-adv-x="573" d="M20 0h553v184h-184v820h-328v-185h144v-635h-185v-184zM31 1249v185h184v-185h-184zM358 1249v185h185v-185h-185z" />
<glyph unicode="&#x458;" horiz-adv-x="512" d="M-82 -246h102q70 0 117 47t47 117v901h-143v185h328v-1086q0 -78 -26 -141.5t-72 -109.5t-110.5 -71.5t-140.5 -25.5h-102v184zM184 1229v205h185v-205h-185z" />
<glyph unicode="&#x459;" horiz-adv-x="1423" d="M-41 0v184h133l246 820h512v-369h194q70 0 128.5 -23.5t100.5 -65.5t65.5 -100.5t23.5 -128.5t-23.5 -128t-65.5 -100t-100.5 -65.5t-128.5 -23.5h-378v819h-195l-246 -819h-266zM850 184h194q53 0 93.5 40t40.5 93t-40 93.5t-94 40.5h-194v-267z" />
<glyph unicode="&#x45a;" horiz-adv-x="1474" d="M20 819v185h328v-369h369v369h184v-369h195q70 0 128 -23.5t100 -65.5t65.5 -100.5t23.5 -128.5t-23.5 -128t-65.5 -100t-100.5 -65.5t-127.5 -23.5h-379v451h-369v-451h-184v819h-144zM901 184h195q53 0 93 40t40 93t-40 93.5t-93 40.5h-195v-267zM967 -324l4 11l20 -11 h-24z" />
<glyph unicode="&#x45b;" horiz-adv-x="1064" d="M0 1065v184h184v185h185v-185h204v-184h-204v-266q25 35 61 61q31 23 77 42.5t107 19.5t116.5 -26t98.5 -72t68 -110.5t25 -140.5v-573h-185v573q0 70 -47 117t-117 47q-47 0 -84.5 -16t-64.5 -35q-33 -23 -55 -51v-635h-185v1065h-184z" />
<glyph unicode="&#x45c;" horiz-adv-x="942" d="M20 819v185h328v-410h174l205 410h195l-256 -502l256 -502h-195l-205 410h-174v-410h-184v819h-144zM419 1126l164 328h185l-226 -328h-123z" />
<glyph unicode="&#x45e;" horiz-adv-x="911" d="M-20 819v185h266l227 -707l203 707h194l-338 -1127q-47 -154 -127.5 -230.5t-220.5 -76.5h-61v184h61q70 0 109 35t55 88l41 133l-276 809h-133zM137 1433l175 21q16 -53 53 -88t90 -35t90 34.5t53 88.5l174 -21q-31 -117 -112.5 -191.5t-204.5 -74.5t-205 74.5 t-113 191.5z" />
<glyph unicode="&#x45f;" horiz-adv-x="1064" d="M20 819v185h328v-820h369v820h184v-1004h-276v-215h-185v215h-276v819h-144z" />
<glyph unicode="&#x490;" horiz-adv-x="921" d="M20 1239v195h707v204h195v-399h-543v-1239h-195v1239h-164z" />
<glyph unicode="&#x491;" horiz-adv-x="757" d="M20 819v185h553v194h185v-379h-410v-819h-184v819h-144z" />
<glyph unicode="&#x2000;" horiz-adv-x="952" />
<glyph unicode="&#x2001;" horiz-adv-x="1905" />
<glyph unicode="&#x2002;" horiz-adv-x="952" />
<glyph unicode="&#x2003;" horiz-adv-x="1905" />
<glyph unicode="&#x2004;" horiz-adv-x="635" />
<glyph unicode="&#x2005;" horiz-adv-x="476" />
<glyph unicode="&#x2006;" horiz-adv-x="317" />
<glyph unicode="&#x2007;" horiz-adv-x="317" />
<glyph unicode="&#x2008;" horiz-adv-x="238" />
<glyph unicode="&#x2009;" horiz-adv-x="381" />
<glyph unicode="&#x200a;" horiz-adv-x="105" />
<glyph unicode="&#x2010;" horiz-adv-x="839" d="M82 532v185h676v-185h-676z" />
<glyph unicode="&#x2011;" horiz-adv-x="839" d="M82 532v185h676v-185h-676z" />
<glyph unicode="&#x2012;" horiz-adv-x="839" d="M82 532v185h676v-185h-676z" />
<glyph unicode="&#x2013;" horiz-adv-x="1064" d="M82 471v184h901v-184h-901z" />
<glyph unicode="&#x2014;" horiz-adv-x="1269" d="M82 471v184h1106v-184h-1106z" />
<glyph unicode="&#x2018;" horiz-adv-x="389" d="M82 1024v164l205 246h102l-102 -226v-184h-205z" />
<glyph unicode="&#x2019;" horiz-adv-x="389" d="M0 1024l102 225v185h205v-164l-205 -246h-102z" />
<glyph unicode="&#x201a;" horiz-adv-x="389" d="M0 -225l102 225v184h205v-164l-205 -245h-102z" />
<glyph unicode="&#x201c;" horiz-adv-x="716" d="M82 1024v164l205 246h102l-102 -226v-184h-205zM410 1024v164l204 246h103l-103 -226v-184h-204z" />
<glyph unicode="&#x201d;" horiz-adv-x="716" d="M0 1024l102 225v185h205v-164l-205 -246h-102zM328 1024l102 225v185h205v-164l-205 -246h-102z" />
<glyph unicode="&#x201e;" horiz-adv-x="716" d="M0 -225l102 225v184h205v-164l-205 -245h-102zM328 -225l102 225v184h205v-164l-205 -245h-102z" />
<glyph unicode="&#x2026;" horiz-adv-x="1208" d="M82 92q0 47 32.5 80t80.5 33q47 0 79.5 -33t32.5 -80t-32.5 -79.5t-79.5 -32.5t-80 32.5t-33 79.5zM492 92q0 47 32.5 80t79.5 33t80 -33t33 -80t-33 -79.5t-80 -32.5t-79.5 32.5t-32.5 79.5zM901 92q0 47 33 80t80 33t79.5 -33t32.5 -80t-32.5 -79.5t-79.5 -32.5 t-80 32.5t-33 79.5z" />
<glyph unicode="&#x202f;" horiz-adv-x="381" />
<glyph unicode="&#x2039;" horiz-adv-x="614" d="M82 492l246 409h204l-245 -409l245 -410h-204z" />
<glyph unicode="&#x203a;" horiz-adv-x="614" d="M82 82l246 410l-246 409h205l245 -409l-245 -410h-205z" />
<glyph unicode="&#x205f;" horiz-adv-x="476" />
<glyph unicode="&#x20ac;" horiz-adv-x="1157" d="M61 451v184h164v164h-164v184h164q0 100 36 186t99.5 149.5t149.5 99.5t186 36q117 0 196 -42t130 -91q57 -59 94 -133l-164 -103q-20 49 -55 86q-29 33 -79 61t-122 28q-57 0 -107 -21.5t-88 -59.5t-59.5 -88.5t-21.5 -107.5h317v-184h-317v-164h317v-184h-317 q0 -57 21.5 -107.5t59.5 -88.5t88 -59.5t107 -21.5q72 0 122 26.5t79 59.5q35 37 55 88l164 -102q-37 -76 -94 -133q-51 -51 -130 -92t-196 -41q-100 0 -186 35.5t-149.5 99t-99.5 149.5t-36 187h-164z" />
<glyph unicode="&#x2122;" horiz-adv-x="1208" d="M0 1290v144h635l133 -205l133 205h143v-349h62v-143h-205v266l-82 -133h-102l-82 133v-266h-143v348h-164v-348h-144v348h-184z" />
<glyph unicode="&#x25fc;" horiz-adv-x="1003" d="M0 0v1004h1004v-1004h-1004z" />
</font>
</defs>
</svg>
